<svg xmlns='http://www.w3.org/2000/svg' viewBox='0 0 100 100'>
  <circle id="circle" cx="50" cy="50" r="50" fill="red"/>

  <path id="star" fill-rule="evenodd" clip-rule="evenodd" d="M11 205C118.143 205 205 118.143 205 11C205 118.143 291.857 205 399 205C291.857 205 205 291.857 205 399C205 291.857 118.143 205 11 205ZM0 205.307V204.693C3.64087 204.897 7.30835 205 11 205C7.30835 205 3.64087 205.103 0 205.307ZM204.693 410C204.897 406.359 205 402.692 205 399C205 402.692 205.103 406.359 205.307 410H204.693ZM399 205C402.692 205 406.359 204.897 410 204.693V205.307C406.359 205.103 402.692 205 399 205ZM205 11C205 7.30835 205.103 3.64075 205.307 0H204.693C204.897 3.64075 205 7.30835 205 11Z" fill="#D5FF00"/>

</svg>