<?xml version="1.0" encoding="utf-8"?>
<!-- Generator: Adobe Illustrator 25.4.1, SVG Export Plug-In . SVG Version: 6.00 Build 0)  -->
<svg version="1.1" id="Calque_1" xmlns="http://www.w3.org/2000/svg" xmlns:xlink="http://www.w3.org/1999/xlink" x="0px" y="0px"
	 viewBox="0 0 2000 2000" style="enable-background:new 0 0 2000 2000;" xml:space="preserve">
<style type="text/css">
	.st0{fill:#26262D;}
</style>
<g>
	<g>
		<polygon class="st0" points="1474.48,473 1473.91,424.74 904.57,1076.75 903.84,1130.41 		"/>
	</g>
	<g>
		<polygon class="st0" points="1846.52,47.7 1845.96,-0.57 1276.62,651.45 1275.89,705.1 		"/>
	</g>
	<g>
		<polygon class="st0" points="347.68,1710.88 349.2,425.07 154.43,651.04 154.43,2000 715.16,1347.78 715.16,1293.67 		"/>
	</g>
	<g>
		<polygon class="st0" points="913.41,425.44 715.16,651.04 715.16,1293.67 904.57,1076.75 		"/>
	</g>
</g>
<g>
	<g>
		<polygon class="st0" points="895.72,1729.06 903.84,1130.41 715.16,1347.78 715.16,2000 1275.9,1360.39 1275.9,1308.1 		"/>
	</g>
	<g>
		<polygon class="st0" points="1464.59,1129.23 1464.33,1148.15 1464.59,1147.87 		"/>
	</g>
	<g>
		<polygon class="st0" points="1275.9,2000 1456.46,1728.29 1464.33,1148.15 1275.9,1360.39 		"/>
	</g>
	<g>
		<polygon class="st0" points="1464.59,1129.23 1474.14,424.68 1275.9,651.56 1275.9,1308.1 1464.59,1099.17 		"/>
	</g>
</g>
</svg>
