<svg width="111" height="111" viewBox="0 0 111 111" fill="none" xmlns="http://www.w3.org/2000/svg">
<path d="M79.3066 4.33958C80.6696 2.70083 83.3086 4.04678 82.7824 6.11229L75.021 36.5747C74.6799 37.9133 75.7664 39.1865 77.142 39.0601L108.446 36.1844C110.568 35.9894 111.483 38.8072 109.65 39.8956L82.6217 55.9476C81.434 56.653 81.302 58.3215 82.364 59.2049L106.533 79.3066C108.171 80.6696 106.825 83.3086 104.76 82.7823L74.2975 75.0209C72.9588 74.6798 71.6857 75.7663 71.8121 77.1419L74.6878 108.446C74.8828 110.568 72.065 111.483 70.9766 109.65L54.9245 82.6216C54.2191 81.4339 52.5506 81.3019 51.6673 82.364L31.5656 106.533C30.2026 108.171 27.5636 106.825 28.0899 104.76L35.8513 74.2974C36.1923 72.9588 35.1059 71.6856 33.7302 71.812L2.42644 74.6877C0.303881 74.8827 -0.610447 72.0649 1.22221 70.9765L28.2505 54.9245C29.4383 54.2191 29.5702 52.5506 28.5082 51.6672L4.33964 31.5655C2.70089 30.2025 4.04684 27.5635 6.11234 28.0898L36.5747 35.8512C37.9134 36.1923 39.1865 35.1058 39.0601 33.7302L36.1845 2.42638C35.9895 0.303828 38.8073 -0.610498 39.8957 1.22216L55.9477 28.2505C56.6531 29.4382 58.3216 29.5702 59.2049 28.5081L79.3066 4.33958Z" fill="#D5FF00"/>
</svg>
